<svg xmlns="http://www.w3.org/2000/svg" viewBox="0 0 204.06 138.7"><defs><style>.cls-1{fill:#9d9d9c;stroke:#1d1d1b;stroke-miterlimit:10;stroke-width:8px;}</style></defs><title>Ресурс 4</title><g id="Слой_2" data-name="Слой 2"><g id="Слой_1-2" data-name="Слой 1"><path class="cls-1" d="M102,126A65.35,65.35,0,1,1,69.35,4,65,65,0,0,1,102,12.75,65.35,65.35,0,0,0,102,126Z"/><path class="cls-1" d="M200.06,69.35A65.36,65.36,0,0,1,102,126a65.36,65.36,0,0,0,0-113.2,65.36,65.36,0,0,1,98,56.6Z"/><path class="cls-1" d="M134.7,69.35A65.31,65.31,0,0,1,102,126a65.35,65.35,0,0,1,0-113.2A65.31,65.31,0,0,1,134.7,69.35Z"/></g></g></svg>